# xmcd
#
# Track frame offsets: 
#        150
#        12465
#        31305
#        54505
#        68402
#        90147
#        106490
#        126740
#        145927
#        164160
#
# Disc length: 2504 seconds
#
# Revision: 0
# Processed by: cddbd v1.5.2PL0 Copyright (c) Steve Scherf et al.
# Submitted via: ExactAudioCopyFreeDBPlugin 1.0
#
DISCID=8709c60a
DTITLE=Steve Gibson - The Wishing Well
DYEAR=1993
DGENRE=Country
TTITLE0=Aussie Boy
TTITLE1=One More Rodeo
TTITLE2=The Wishing Well
TTITLE3=What Can I Do
TTITLE4=Cowboys Don't Cry
TTITLE5=One'll Get You Fifty
TTITLE6=Out On The Town
TTITLE7=There's No Way
TTITLE8=The Captain and Mr Jones
TTITLE9=Maybe You'll Win
EXTD=
EXTT0=
EXTT1=
EXTT2=
EXTT3=
EXTT4=
EXTT5=
EXTT6=
EXTT7=
EXTT8=
EXTT9=
PLAYORDER=
